<svg width="65" height="64" viewBox="0 0 65 64" fill="none" xmlns="http://www.w3.org/2000/svg">
<path d="M29.3269 8.59472L6.35072 17.2816C5.07302 17.7648 5.08626 19.4234 6.37197 19.889L29.444 28.249C31.4711 28.9837 33.7286 28.9837 35.7558 28.249L58.8281 19.8887C60.1135 19.4234 60.1274 17.7651 58.849 17.282L35.8735 8.59441C33.7774 7.80186 31.4227 7.80186 29.3266 8.59441" fill="#FCB400"/>
<path d="M32.6 33.6896V56.09C32.6 57.1551 33.6967 57.8849 34.7077 57.4924L60.4278 47.7125C60.7146 47.6011 60.9607 47.4078 61.1341 47.1578C61.3074 46.9077 61.4001 46.6124 61.4 46.3101V23.9101C61.4 22.8446 60.3034 22.1151 59.2924 22.5077L33.5723 32.2875C33.2855 32.399 33.0395 32.5923 32.8661 32.8423C32.6928 33.0924 32.6001 33.3877 32.6 33.6899" fill="#18BFFF"/>
<path d="M27.0073 34.7287L19.9539 38.3326L19.2378 38.699L4.34849 46.2487C3.40499 46.7306 2.20001 46.0027 2.20001 44.8931V23.9065C2.20001 23.505 2.39451 23.1585 2.65534 22.8978C2.76235 22.785 2.88374 22.6887 3.016 22.6115C3.3715 22.3856 3.87899 22.3253 4.31049 22.5059L26.8888 31.9732C28.0365 32.455 28.1267 34.1568 27.0073 34.729" fill="#F82B60"/>
<mask id="mask0_302_411" style="mask-type:alpha" maskUnits="userSpaceOnUse" x="2" y="22" width="26" height="25">
<path d="M27.0073 34.7287L19.9539 38.3326L19.2378 38.699L4.34849 46.2487C3.40499 46.7306 2.20001 46.0027 2.20001 44.8931V23.9065C2.20001 23.505 2.39451 23.1585 2.65534 22.8978C2.76235 22.785 2.88374 22.6887 3.016 22.6115C3.3715 22.3856 3.87899 22.3253 4.31049 22.5059L26.8888 31.9732C28.0365 32.455 28.1267 34.1568 27.0073 34.729" fill="#F82B60"/>
</mask>
<g mask="url(#mask0_302_411)">
<path d="M27.5042 34.7671L19.8 40L1.40002 22.0995C1.50899 21.9864 1.63258 21.8898 1.76721 21.8124C2.12915 21.5855 4.16071 21.4186 4.60002 21.6L27.3835 32C28.552 32.4839 28.6438 34.1925 27.5042 34.7671Z" fill="black" fill-opacity="0.25"/>
</g>
</svg>
