<svg width="40" height="40" viewBox="0 0 40 40" fill="none" xmlns="http://www.w3.org/2000/svg">
<g clip-path="url(#clip0_2_976)">
<g clip-path="url(#clip1_2_976)">
<path d="M4.13333 26.127C4.47556 26.127 4.76514 26.2059 4.92309 26.3639C4.94942 26.6008 4.73881 26.9957 4.58086 26.9957C4.42291 26.943 4.26495 26.8904 4.08068 26.8904C3.29091 26.8904 2.89603 27.7065 2.89603 28.5226C2.89603 29.0228 3.08031 29.3387 3.47519 29.3387C3.8964 29.3387 4.34393 29.0491 4.58086 28.8385C4.63351 28.8911 4.71249 29.0228 4.71249 29.1807C4.71249 29.365 4.65984 29.5229 4.50188 29.6809C4.2123 29.9705 3.76477 30.1811 3.08031 30.1811C2.29055 30.1811 1.76404 29.7335 1.76404 28.7068C1.76404 27.3642 2.6591 26.127 4.13333 26.127Z" fill="#373535"/>
<path d="M6.68968 29.2929C7.11089 29.2929 7.90065 28.5558 8.11126 27.1079C8.11126 27.0289 8.13758 27.0026 8.13758 26.8973C8.03228 26.8709 7.90065 26.8446 7.76902 26.8446C7.45312 26.8446 7.11089 26.9499 6.82131 27.3448C6.5054 27.766 6.37378 28.2925 6.37378 28.74C6.4001 29.1086 6.5054 29.2929 6.68968 29.2929ZM5.29443 28.9243C5.29443 28.4241 5.47871 27.5027 6.11052 26.8709C6.66336 26.2918 7.34782 26.1602 7.9533 26.1602C8.37451 26.1602 8.92734 26.2918 9.26957 26.3708C9.1906 26.7656 8.98 28.1872 8.87469 29.0296C8.82204 29.3982 8.82204 29.872 8.82204 30.0563C8.53246 30.1879 8.00595 30.2143 7.848 30.2143C7.76902 30.2143 7.7427 29.8457 7.76902 29.5298C7.76902 29.4245 7.79535 29.2402 7.79535 29.1876C7.45312 29.7404 6.79498 30.2406 6.0842 30.2406C5.61034 30.1879 5.29443 29.7667 5.29443 28.9243Z" fill="#373535"/>
<path d="M11.443 26.127C11.8116 26.127 12.1275 26.2586 12.2854 26.4165C12.2854 26.6535 12.0748 27.0747 11.7852 26.943C11.6536 26.8904 11.522 26.8641 11.3377 26.8641C11.1008 26.8641 10.8902 26.9694 10.8902 27.18C10.8902 27.3379 11.0218 27.4696 11.6009 27.8644C12.0222 28.1803 12.1801 28.4436 12.1801 28.8121C12.1801 29.444 11.5746 30.1284 10.5479 30.1284C10.1267 30.1284 9.75817 29.9705 9.62654 29.7862C9.46859 29.5229 9.60021 29.0227 9.75817 29.1017C9.9951 29.207 10.3637 29.3387 10.6532 29.3387C10.9428 29.3387 11.1271 29.207 11.1271 29.0228C11.1271 28.8648 10.9955 28.7332 10.469 28.3646C10.0214 28.0224 9.88979 27.7328 9.88979 27.3906C9.91612 26.7324 10.5216 26.127 11.443 26.127Z" fill="#373535"/>
<path d="M14.4334 26.127C14.8019 26.127 15.1178 26.2586 15.2758 26.4165C15.2758 26.6535 15.0652 27.0747 14.7756 26.943C14.644 26.8904 14.5123 26.8641 14.328 26.8641C14.0911 26.8641 13.8805 26.9694 13.8805 27.18C13.8805 27.3379 14.0121 27.4696 14.5913 27.8644C15.0125 28.1803 15.1705 28.4436 15.1705 28.8121C15.1705 29.444 14.565 30.1284 13.5383 30.1284C13.1171 30.1284 12.7485 29.9705 12.6169 29.7862C12.4589 29.5229 12.5906 29.0227 12.7485 29.1017C12.9855 29.207 13.354 29.3387 13.6436 29.3387C13.9332 29.3387 14.1174 29.207 14.1174 29.0228C14.1174 28.8648 13.9858 28.7332 13.4593 28.3646C13.0118 28.0224 12.8802 27.7328 12.8802 27.3906C12.9065 26.7324 13.5383 26.127 14.4334 26.127Z" fill="#373535"/>
<path d="M17.1763 29.2929C17.5975 29.2929 18.3873 28.5558 18.5979 27.1079C18.5979 27.0289 18.6242 27.0026 18.6242 26.8973C18.5189 26.8709 18.3873 26.8446 18.2557 26.8446C17.9398 26.8446 17.5975 26.9499 17.3079 27.3448C16.992 27.766 16.8604 28.2925 16.8604 28.74C16.8867 29.1086 16.992 29.2929 17.1763 29.2929ZM15.7811 28.9243C15.7811 28.4241 15.9653 27.5027 16.5972 26.8709C17.15 26.2918 17.8345 26.1602 18.4399 26.1602C18.8611 26.1602 19.414 26.2918 19.7562 26.3708C19.6772 26.7656 19.4666 28.1872 19.3613 29.0296C19.3087 29.3982 19.3087 29.872 19.3087 30.0563C19.0191 30.1879 18.4926 30.2143 18.3346 30.2143C18.2557 30.2143 18.2293 29.8457 18.2557 29.5298C18.2557 29.4245 18.282 29.2402 18.282 29.1876C17.9398 29.7404 17.2816 30.2406 16.5708 30.2406C16.1233 30.1879 15.7811 29.7667 15.7811 28.9243Z" fill="#373535"/>
<path d="M21.7442 27.2751C22.1391 26.6433 22.6656 26.1431 23.4027 26.1431C24.0082 26.1431 24.2188 26.7222 24.1135 27.5383C24.0609 27.9332 23.9556 28.4597 23.8766 28.9862C23.824 29.4074 23.7713 29.8023 23.7713 30.0656C23.5344 30.1709 22.8762 30.2235 22.7446 30.2235C22.692 30.2235 22.6656 29.7497 22.7446 29.2495C22.8236 28.8283 22.9552 28.0648 23.0342 27.6436C23.0868 27.3804 23.0605 27.0908 22.8236 27.0908C22.5077 27.0908 21.7442 27.591 21.3494 29.697C21.323 29.8813 21.2441 29.9866 21.1651 30.0392C21.0335 30.1182 20.7439 30.1972 20.191 30.1972C20.2963 29.6707 20.4543 28.5913 20.5859 27.7752C20.6912 27.0381 20.7439 26.5643 20.7175 26.38C20.8755 26.3273 21.6389 26.1694 21.7179 26.1694C21.8232 26.1694 21.8232 26.4326 21.7442 27.0908C21.7179 27.1171 21.7179 27.2224 21.7442 27.2751Z" fill="#373535"/>
<path d="M26.1629 29.3058C26.5578 29.3058 27.3212 28.595 27.5318 27.3314C27.5318 27.2524 27.5581 27.1208 27.5845 27.0418C27.4792 26.9365 27.3212 26.8576 27.0843 26.8576C26.2155 26.8576 25.8207 27.9106 25.8207 28.674C25.8207 29.0952 25.9523 29.3058 26.1629 29.3058ZM25.5837 30.2009C25.0309 30.2009 24.6887 29.7007 24.6887 28.8583C24.6887 27.4367 25.5574 26.1468 27.0579 26.1468C27.3212 26.1468 27.5581 26.2257 27.6898 26.3047C27.7687 25.9098 27.953 24.6725 27.953 24.304C28.1899 24.2513 28.7165 24.1724 28.9534 24.1724C29.0587 24.1724 29.085 24.2777 29.0324 24.4883C28.8218 25.8045 28.4532 28.3055 28.3742 28.8583C28.3216 29.3321 28.3216 29.7797 28.3216 30.0429C28.032 30.1746 27.4792 30.2009 27.3212 30.2009C27.2686 30.2009 27.2159 29.806 27.2422 29.4375C27.2422 29.3321 27.2686 29.1479 27.2686 29.1215C26.8473 29.8323 26.2419 30.2009 25.5837 30.2009Z" fill="#373535"/>
<path d="M30.68 27.3876C31.1538 26.3609 31.6803 26.124 32.0489 26.124C32.1542 26.124 32.3385 26.203 32.4175 26.282C32.4438 26.5716 32.2332 27.1507 32.0226 27.3613C31.9173 27.3087 31.7856 27.256 31.6277 27.256C31.3381 27.256 30.759 27.7299 30.3904 29.7043C30.3641 29.8622 30.3114 29.9412 30.2061 29.9939C30.0482 30.0728 29.469 30.1518 29.2057 30.1518C29.3374 29.441 29.5743 27.9931 29.6533 27.1244C29.6796 26.9138 29.6796 26.5189 29.6796 26.361C29.8376 26.282 30.4957 26.124 30.6536 26.124C30.7063 26.1503 30.7853 26.6242 30.68 27.3876Z" fill="#373535"/>
<path d="M33.7453 29.2929C34.1665 29.2929 34.9563 28.5558 35.1669 27.1079C35.1669 27.0289 35.1932 27.0026 35.1932 26.8973C35.0879 26.8709 34.9563 26.8446 34.8246 26.8446C34.5087 26.8446 34.1665 26.9499 33.8769 27.3448C33.561 27.766 33.4294 28.2925 33.4294 28.74C33.4557 29.1086 33.561 29.2929 33.7453 29.2929ZM32.35 28.9243C32.35 28.4241 32.5343 27.5027 33.1661 26.8709C33.719 26.2918 34.4034 26.1602 35.0089 26.1602C35.4301 26.1602 35.9829 26.2918 36.3252 26.3708C36.2462 26.7656 36.0356 28.1872 35.9303 29.0296C35.8776 29.3982 35.8776 29.872 35.8776 30.0563C35.5881 30.1879 35.0616 30.2143 34.9036 30.2143C34.8246 30.2143 34.7983 29.8457 34.8246 29.5298C34.8246 29.4245 34.851 29.2402 34.851 29.1876C34.5087 29.7404 33.8506 30.2406 33.1398 30.2406C32.6923 30.1879 32.35 29.7667 32.35 28.9243Z" fill="#373535"/>
<path d="M31.1925 11.3973C31.4821 14.7406 26.217 17.926 19.4514 18.5052C12.6857 19.0843 6.94679 16.8467 6.65721 13.5033C6.36763 10.16 11.6327 6.97462 18.3984 6.39546C25.1903 5.8163 30.9029 8.05396 31.1925 11.3973Z" fill="#BBE6FB"/>
<g opacity="0.35">
<path d="M18.6105 6.80077C16.0306 6.74812 13.0032 7.7748 10.7392 8.74884C10.5023 9.43331 10.3707 10.1441 10.3707 10.8812C10.3707 14.8564 13.9509 18.0681 18.3736 18.0681C22.7963 18.0681 26.3765 14.8564 26.3765 10.8812C26.3765 9.61759 26.008 8.45926 25.3762 7.43257C23.586 7.14299 21.1114 6.8271 18.6105 6.80077Z" fill="white"/>
</g>
<path d="M18.3916 6.80173C16.97 6.72275 14.4954 7.45986 12.4421 8.19697C12.1262 8.93408 11.9682 9.75017 11.9682 10.5926C11.9682 14.0675 15.1273 16.8844 18.4443 16.8844C21.7613 16.8844 24.6834 14.0675 24.9203 10.5926C24.9993 9.46059 24.6044 8.40757 24.0779 7.48618C21.9192 7.0913 19.6552 6.8807 18.3916 6.80173Z" fill="white"/>
<path d="M14.7136 10.1364C14.8979 9.74148 15.1611 9.55719 15.4244 9.24129C15.3981 9.16231 15.3454 8.89907 15.3454 8.82009C15.3454 8.42521 15.6613 8.1093 16.0562 8.1093C16.1615 8.1093 16.2405 8.13563 16.3195 8.16195C17.4778 7.26689 19.031 6.87201 20.5842 7.21424C20.7158 7.24057 20.8738 7.29321 21.0054 7.31954C19.4785 7.10893 17.741 7.66177 16.5827 8.60949C16.609 8.68846 16.7143 8.92539 16.7143 9.03069C16.7143 9.42557 16.4511 9.50454 16.0825 9.50454C16.0036 9.50454 15.8982 9.47823 15.8193 9.45191C15.556 9.82046 15.2401 10.4786 15.0822 10.8998C15.7403 11.479 16.3195 11.6896 17.0829 11.9791C17.0829 11.9528 17.1092 11.9002 17.1092 11.8738C17.1092 10.6892 18.1359 9.74148 19.3206 9.74148C20.3736 9.74148 21.2423 10.5049 21.4266 11.5053C21.9531 11.1631 22.4533 10.9261 22.8482 10.4259C22.7692 10.3206 22.6639 10.0047 22.6639 9.84679C22.6639 9.50456 22.9535 9.21497 23.2957 9.21497C23.3484 9.21497 23.401 9.21496 23.4537 9.24129C23.6379 8.84641 23.7959 8.39889 23.9012 7.95135C22.0584 6.58243 18.5045 6.76671 18.5045 6.76671C18.5045 6.76671 15.6613 6.60876 13.7396 7.55647C13.7922 8.50419 14.1608 9.39925 14.7136 10.1364Z" fill="#373535"/>
<path d="M23.5087 9.5923C23.6404 9.6976 23.7193 9.80291 23.772 9.90821C23.9563 10.2241 23.5877 10.5137 23.2455 10.5137C23.2191 10.5137 23.1665 10.5137 23.1402 10.5137C22.7453 11.1455 22.0345 11.9353 21.429 12.3302C22.3767 12.4881 23.2718 12.8567 24.0089 13.4621C24.5354 12.5408 24.9303 11.1718 24.9303 10.0398C24.9303 9.1711 24.5354 8.53929 23.9563 8.06543C23.9036 8.51296 23.6667 9.1711 23.5087 9.5923Z" fill="#373535"/>
<path d="M15.7673 15.5088C16.0832 14.64 16.873 13.9556 17.6101 13.3501C17.5048 13.1921 17.3468 12.8236 17.2678 12.6656C16.3728 12.4024 15.5567 11.8759 14.9512 11.1914C14.9512 11.2177 14.9512 11.2177 14.9249 11.2441C14.8196 11.7706 14.7933 12.2971 14.8459 12.7973C15.2671 12.8762 15.6093 13.2448 15.6093 13.7186C15.6093 13.9819 15.3724 14.3768 15.1881 14.5611C15.3987 14.9823 15.5304 15.1929 15.7673 15.5088Z" fill="#373535"/>
<path d="M15.7124 16.2558C15.3439 15.8872 15.0806 15.1238 14.8174 14.65C14.7647 14.65 14.7121 14.65 14.6857 14.65C14.1592 14.65 13.6327 14.2288 13.7643 13.7286C13.8433 13.4653 14.0276 13.281 14.3435 13.1231C14.2645 12.5439 14.2645 11.7278 14.3962 11.1223C14.4225 10.9644 14.5278 10.8854 14.5804 10.7011C14.0013 9.85873 13.659 8.77938 13.659 7.70003C13.659 7.64738 13.659 7.62105 13.659 7.59473C12.7113 8.06858 11.9742 8.83203 11.9742 10.0167C11.9479 12.6755 13.4484 15.2554 15.7124 16.2558Z" fill="#373535"/>
<path d="M21.2817 12.5996C20.9922 13.442 20.2024 14.0212 19.281 14.0212C18.7808 14.0212 18.3333 13.8369 17.9647 13.5737C17.2276 14.1528 16.5432 15.1795 16.2009 16.0746C16.3589 16.2325 16.4642 16.3905 16.6485 16.5221C17.175 16.6537 17.8858 16.5221 18.4649 16.5221C20.7552 16.5221 22.756 15.5217 23.9143 13.7316C23.0982 13.2051 22.2031 12.6786 21.2817 12.5996Z" fill="#373535"/>
<path d="M14.6551 10.426C14.8394 10.0311 15.05 9.68885 15.3132 9.34662C15.2869 9.26765 15.2606 9.18866 15.2606 9.10969C15.2606 8.71481 15.5765 8.3989 15.9714 8.3989C16.0767 8.3989 16.1557 8.42523 16.2346 8.45155C17.393 7.55649 18.9462 7.16161 20.4994 7.50384C20.631 7.53017 20.7889 7.58281 20.9206 7.60913C19.3937 7.39853 17.8142 7.8724 16.6295 8.82011C16.6558 8.89909 16.6822 9.00439 16.6822 9.08337C16.6822 9.47825 16.3663 9.79416 15.9714 9.79416C15.8924 9.79416 15.7871 9.76783 15.7081 9.7415C15.4449 10.1101 15.2343 10.4786 15.0763 10.9261C15.6292 11.5316 16.3136 12.0055 17.0771 12.2951C17.0771 12.2688 17.0771 12.2161 17.0771 12.1898C17.0771 11.0051 18.0248 10.0574 19.2094 10.0574C20.2624 10.0574 21.1312 10.8208 21.3154 11.8212C21.842 11.479 22.3158 11.0578 22.7107 10.5576C22.6317 10.4523 22.5527 10.3207 22.5527 10.1627C22.5527 9.82047 22.8423 9.5309 23.1846 9.5309C23.2372 9.5309 23.2899 9.5309 23.3425 9.55722C23.5268 9.16234 23.6847 8.7148 23.79 8.26727C21.9473 6.89835 18.3933 7.08263 18.3933 7.08263C18.3933 7.08263 15.5502 6.92467 13.6284 7.87239C13.7337 8.8201 14.1023 9.68885 14.6551 10.426Z" fill="#1287B1"/>
<path d="M23.6269 9.70343C23.7585 9.80873 23.8375 9.99301 23.8375 10.1773C23.8375 10.5195 23.5479 10.8091 23.2057 10.8091C23.1794 10.8091 23.1267 10.8091 23.1004 10.8091C22.7055 11.4409 22.179 11.9674 21.5472 12.3623C22.4686 12.4939 23.3373 12.8888 24.0481 13.4943C24.5746 12.5729 24.8642 11.4936 24.8642 10.3352C24.8642 9.46651 24.4693 8.8347 23.8901 8.36084C23.8638 8.8347 23.7585 9.28222 23.6269 9.70343Z" fill="#1287B1"/>
<path d="M15.8835 15.7296C16.1994 14.8609 16.7522 14.0712 17.4894 13.4657C17.3841 13.3077 17.3051 13.1498 17.2261 12.9918C16.331 12.7286 15.5149 12.202 14.9095 11.5176C14.9095 11.5439 14.9095 11.5439 14.8831 11.5702C14.7778 12.0967 14.7515 12.6233 14.8042 13.1234C15.2254 13.2024 15.5676 13.571 15.5676 14.0448C15.5676 14.3081 15.4623 14.545 15.278 14.7293C15.436 15.0715 15.6466 15.4137 15.8835 15.7296Z" fill="#1287B1"/>
<path d="M15.7087 16.2446C15.3402 15.876 15.0243 15.4285 14.761 14.9546C14.7084 14.9546 14.6557 14.9546 14.6294 14.9546C14.1029 14.9546 13.708 14.5334 13.708 14.0332C13.708 13.6647 13.9186 13.3488 14.2345 13.1908C14.1555 12.6117 14.1819 12.0325 14.3135 11.427C14.3398 11.2691 14.3925 11.0848 14.4451 10.9268C13.866 10.0844 13.5501 9.08405 13.5501 8.00471C13.5501 7.95206 13.5501 7.92574 13.5501 7.89941C12.6023 8.37327 11.8652 9.13671 11.8652 10.3214C11.8916 12.9802 13.4448 15.2442 15.7087 16.2446Z" fill="#1287B1"/>
<path d="M21.2233 12.916C20.9337 13.7584 20.1439 14.3376 19.2225 14.3376C18.7223 14.3376 18.2748 14.1533 17.9062 13.89C17.1691 14.4692 16.59 15.259 16.2477 16.154C16.4057 16.312 16.5636 16.4699 16.7479 16.6279C17.2744 16.7595 17.8273 16.8385 18.3801 16.8385C20.6704 16.8385 22.6711 15.6538 23.8031 13.89C23.0397 13.3372 22.1446 12.995 21.2233 12.916Z" fill="#1287B1"/>
<path d="M21.3057 12.3722L23.2801 11.8983L21.3057 11.793L22.9116 10.5557L21.0951 11.2139L22.3324 9.50272L20.6213 10.6347L21.2267 8.60764L20.0421 10.2661L20.0158 8.16011L19.2523 10.0292L18.5942 8.13379L18.6205 10.3715L17.5149 8.37071L18.1203 10.5031L16.3039 9.18681L17.7255 10.9769L15.4878 10.1609L17.2516 11.4771L14.9876 11.5561L17.3042 12.1616L14.9876 12.6618L17.2779 12.8197L15.3298 14.057L17.3306 13.3462L15.9353 15.11L17.6728 13.6885L17.041 16.0314L18.3836 14.1097L18.1993 16.3736L18.9628 14.3203L19.6209 16.479L19.7788 14.3203L20.7529 16.163L20.1737 14.057L21.9375 15.4259L20.7792 13.6621L22.7273 14.4256L21.2267 12.9513L23.2275 13.1093L21.3057 12.3722Z" fill="white"/>
<g opacity="0.35">
<path d="M0.319336 16.1317C6.42684 10.0242 11.3234 8.12873 15.746 7.25999C16.3252 7.15469 16.4305 5.86475 16.4305 5.86475C16.4305 5.86475 16.5095 6.81246 16.9307 6.94409C17.3519 7.07571 17.8784 5.46987 17.8784 5.46987C17.8784 5.46987 17.3782 6.91776 17.8784 6.99674C18.3786 7.07572 19.2737 5.6015 19.2737 5.6015C19.2737 5.6015 18.9051 6.86511 19.142 6.94409C19.379 7.02306 20.6162 5.10131 20.6162 5.10131C20.6162 5.10131 19.8791 6.36492 20.5636 6.49655C21.2744 6.62818 22.2748 5.62781 22.2748 5.62781C22.2748 5.62781 21.485 6.52289 21.8272 6.65451C23.3541 7.18102 24.5651 5.20661 24.5651 5.20661C24.5651 5.20661 24.2755 6.07534 23.5384 7.02306C25.1442 7.44427 26.3289 5.02233 26.3289 5.02233L25.1442 7.44428C25.7497 7.76018 28.2243 4.94336 28.2243 4.94336C28.2243 4.94336 26.9607 7.15469 26.2236 7.60222C26.6448 7.91813 28.119 6.62818 28.119 6.62818C28.119 6.62818 26.9344 8.10241 27.3819 8.18139C28.04 8.70789 30.462 5.44353 30.462 5.44353C30.462 5.44353 29.5142 7.3653 28.119 8.89218C29.2773 9.47133 32.1731 5.73312 32.1731 5.73312C32.1731 5.73312 32.0941 6.91775 29.9881 8.81319C31.5413 8.60258 33.5684 5.65413 33.5684 5.65413C33.5684 5.65413 32.8313 7.86548 31.0674 9.41868C32.5943 9.26073 35.0426 5.46987 35.0426 5.46987C35.0426 5.46987 34.0949 8.1024 32.1731 9.60295C34.3055 10.0768 37.3856 6.89143 37.3856 6.89143C37.3856 6.89143 36.1746 9.15543 34.5951 10.0768C36.3589 10.7613 38.7808 7.97079 38.7808 7.97079C38.7808 7.97079 36.3589 11.709 32.5153 11.551C31.2517 11.4984 27.4345 7.70752 19.221 8.02342C8.40125 8.4183 6.08461 13.0253 0.319336 16.1317Z" fill="#373535"/>
</g>
<path d="M0.551697 15.6746C6.6592 9.56714 11.5557 7.67172 15.9784 6.80298C16.5576 6.69768 16.6629 5.40772 16.6629 5.40772C16.6629 5.40772 16.7418 6.35544 17.163 6.48707C17.5843 6.6187 18.1108 5.01284 18.1108 5.01284C18.1108 5.01284 17.6106 6.46075 18.1108 6.53973C18.6109 6.6187 19.506 5.14446 19.506 5.14446C19.506 5.14446 19.1375 6.40809 19.3744 6.48707C19.6113 6.56605 20.8486 4.64429 20.8486 4.64429C20.8486 4.64429 20.1115 5.90791 20.796 6.03954C21.4804 6.17116 22.5071 5.1708 22.5071 5.1708C22.5071 5.1708 21.7174 6.06585 22.0596 6.19748C23.5865 6.72399 24.7974 4.74958 24.7974 4.74958C24.7974 4.74958 24.5078 5.61833 23.7707 6.56604C25.3766 6.98725 26.5612 4.56532 26.5612 4.56532L25.3766 6.98725C25.9821 7.30315 28.4567 4.48633 28.4567 4.48633C28.4567 4.48633 27.193 6.69767 26.4559 7.14521C26.8771 7.46111 28.3514 6.17116 28.3514 6.17116C28.3514 6.17116 27.1667 7.64539 27.6142 7.72437C28.2724 8.25088 30.6943 4.98652 30.6943 4.98652C30.6943 4.98652 29.7466 6.90827 28.3514 8.43514C29.5097 9.0143 32.4055 5.27609 32.4055 5.27609C32.4055 5.27609 32.3265 6.46074 30.2205 8.35617C31.7737 8.14557 33.8007 5.19712 33.8007 5.19712C33.8007 5.19712 33.0636 7.40845 31.2998 8.96165C32.8267 8.8037 35.275 5.01284 35.275 5.01284C35.275 5.01284 34.3272 7.64538 32.4055 9.14593C34.5378 9.61979 37.6179 6.43442 37.6179 6.43442C37.6179 6.43442 36.4069 8.6984 34.8274 9.61979C36.5912 10.3043 39.0132 7.51375 39.0132 7.51375C39.0132 7.51375 36.5912 11.252 32.7477 11.094C31.4841 11.0414 27.6669 7.2505 19.4534 7.56641C8.63361 7.96129 6.34329 12.5419 0.551697 15.6746Z" fill="#373535"/>
<g opacity="0.35">
<path d="M0.139404 16.793C3.37743 18.4251 6.32588 16.5561 10.0378 17.6091C12.8809 18.3988 16.3032 19.3992 20.9892 18.7147C25.6751 18.0303 29.6765 16.0032 31.572 12.3703C32.1775 10.7381 34.5994 12.7389 34.5994 12.7389C34.5994 12.7389 32.8356 12.0018 32.8883 12.344C32.9409 12.6862 35.5471 13.8972 35.5471 13.8972C35.5471 13.8972 33.1778 13.1601 33.3358 13.7129C33.4674 14.2657 36.2842 16.4771 36.2842 16.4771C36.2842 16.4771 33.0989 14.0551 32.8356 14.3974C32.5723 14.7133 34.1782 16.0559 34.1782 16.0559C34.1782 16.0559 31.493 14.3974 30.5453 14.8712C29.8608 15.2134 33.3358 17.5038 33.3358 17.5038C33.3358 17.5038 31.0718 15.7926 30.5453 16.2401C30.0188 16.6877 33.0989 20.3732 33.0989 20.3732C33.0989 20.3732 29.6239 16.6087 29.2553 16.793C28.9131 16.9773 30.2294 18.7937 30.2294 18.7937C30.2294 18.7937 28.5182 16.8983 28.0444 17.2405C27.5705 17.5564 30.4926 22.4793 30.4926 22.4793C30.4926 22.4793 27.3073 17.4511 25.991 18.2935C28.0444 22.8215 27.2809 23.4533 27.2809 23.4533C27.2809 23.4533 27.0177 18.8464 24.4378 18.9517C23.1478 19.0043 25.0433 22.4003 25.0433 22.4003C25.0433 22.4003 23.2795 19.3202 22.1211 19.3729C24.2798 23.4533 23.5164 25.1118 23.5164 25.1118C23.5164 25.1118 23.885 21.6369 20.9628 19.6888C22.0685 20.6628 20.2784 25.1118 20.2784 25.1118C20.2784 25.1118 21.8579 18.5831 19.12 19.8204C18.6725 20.0047 19.0937 23.0848 19.0937 23.0848C19.0937 23.0848 18.5409 19.5835 17.6985 19.7678C17.2246 19.8731 14.6184 24.638 14.6184 24.638C14.6184 24.638 16.7508 19.5045 16.0926 19.7151C15.6188 19.8731 14.75 21.9791 14.75 21.9791C14.75 21.9791 15.1712 19.8994 14.75 19.7678C14.3288 19.6361 11.9069 21.9791 11.9069 21.9791C11.9069 21.9791 13.697 19.8994 13.3811 19.4519C12.9072 18.7937 12.3807 18.7674 11.7226 19.0306C10.7749 19.3992 9.51126 21.1104 9.51126 21.1104C9.51126 21.1104 10.7749 19.3729 10.5643 18.7147C10.1957 17.6617 6.56281 20.7418 6.56281 20.7418C6.56281 20.7418 8.7215 18.7147 8.22131 18.2672C7.72113 17.846 5.06226 17.9776 4.21985 17.9776C1.74526 17.9776 0.902842 17.3985 0.139404 16.793Z" fill="#373535"/>
</g>
<path d="M0.0396118 16.4346C3.27764 18.0668 6.22609 16.1976 9.93798 17.2507C12.7811 18.0404 16.2034 19.0408 20.8894 18.3563C25.5753 17.6719 29.5768 15.6448 31.4722 12.0119C32.0777 10.3797 34.4996 12.3805 34.4996 12.3805C34.4996 12.3805 32.7358 11.6433 32.7885 11.9856C32.8411 12.3278 35.4473 13.5388 35.4473 13.5388C35.4473 13.5388 33.078 12.8017 33.236 13.3545C33.3676 13.9073 36.1844 16.1187 36.1844 16.1187C36.1844 16.1187 32.9991 13.6967 32.7358 14.039C32.4726 14.3549 34.0784 15.6975 34.0784 15.6975C34.0784 15.6975 31.3932 14.039 30.4455 14.5128C29.761 14.8551 33.236 17.1454 33.236 17.1454C33.236 17.1454 30.972 15.4342 30.4455 15.8817C29.919 16.3293 32.9991 20.0148 32.9991 20.0148C32.9991 20.0148 29.5241 16.2503 29.1556 16.4346C28.8133 16.6189 30.1296 18.4353 30.1296 18.4353C30.1296 18.4353 28.4184 16.5399 27.9446 16.8821C27.4707 17.198 30.3928 22.1209 30.3928 22.1209C30.3928 22.1209 27.2075 17.0927 25.8912 17.9351C27.9446 22.4631 27.1811 23.0949 27.1811 23.0949C27.1811 23.0949 26.9179 18.488 24.338 18.5933C23.048 18.6459 24.9435 22.0419 24.9435 22.0419C24.9435 22.0419 23.1797 18.9618 22.0214 19.0145C24.18 23.0949 23.4166 24.7534 23.4166 24.7534C23.4166 24.7534 23.7852 21.2785 20.863 19.3304C21.9687 20.3044 20.1786 24.7534 20.1786 24.7534C20.1786 24.7534 21.7581 18.2247 19.0203 19.462C18.5727 19.6463 18.9939 22.7263 18.9939 22.7263C18.9939 22.7263 18.4411 19.2251 17.5987 19.4093C17.1248 19.5146 14.5186 24.2796 14.5186 24.2796C14.5186 24.2796 16.651 19.1461 15.9928 19.3567C15.519 19.5146 14.6502 21.6207 14.6502 21.6207C14.6502 21.6207 15.0714 19.541 14.6502 19.4093C14.229 19.2777 11.8071 21.6207 11.8071 21.6207C11.8071 21.6207 13.5972 19.541 13.2813 19.0934C12.8075 18.4353 12.2809 18.409 11.6228 18.6722C10.6751 19.0408 9.41147 20.7519 9.41147 20.7519C9.41147 20.7519 10.6751 19.0145 10.4645 18.3563C10.0959 17.3033 6.46302 20.3834 6.46302 20.3834C6.46302 20.3834 8.62171 18.3563 8.12152 17.9351C7.62134 17.5139 4.96247 17.6455 4.12006 17.6455C1.61914 17.5929 0.776724 17.0137 0.0396118 16.4346Z" fill="#373535"/>
</g>
</g>
<defs>
<clipPath id="clip0_2_976">
<rect width="40" height="40" fill="white"/>
</clipPath>
<clipPath id="clip1_2_976">
<rect width="40" height="40" fill="white"/>
</clipPath>
</defs>
</svg>
