<svg width="65" height="64" viewBox="0 0 65 64" fill="none" xmlns="http://www.w3.org/2000/svg">
<path fill-rule="evenodd" clip-rule="evenodd" d="M54.4993 37.6191C54.5436 38.5839 54.2239 39.5303 53.6036 40.2706C52.9833 41.011 52.1075 41.4914 51.1498 41.6168C45.1069 42.3907 39.0176 42.7458 32.9257 42.6793C26.8338 42.7452 20.7446 42.3902 14.7016 41.6168C13.7768 41.4513 12.9443 40.9537 12.3607 40.2175C11.777 39.4813 11.4824 38.5572 11.5322 37.6191V25.1216C11.5426 24.1779 11.8722 23.2655 12.4673 22.533C13.0625 21.8006 13.8881 21.2912 14.8097 21.0878C16.7137 20.8328 18.6333 20.7125 20.5542 20.7277C20.9284 20.7371 21.2838 20.8936 21.5433 21.1633C21.8029 21.433 21.9457 21.7941 21.9408 22.1683V30.9742C25.8126 30.9742 29.144 30.7401 33.0698 30.7401C36.9955 30.7401 40.273 30.9561 44.1807 30.9742V22.2403C44.1559 21.8658 44.2802 21.4966 44.5264 21.2132C44.7727 20.9299 45.1209 20.7554 45.4953 20.7277C47.4043 20.7125 49.3119 20.8329 51.2038 21.0878C52.1288 21.2876 52.9585 21.7955 53.5571 22.5283C54.1558 23.2611 54.488 24.1754 54.4993 25.1216V37.6191ZM32.9977 0.00060956C26.6689 -0.038446 20.4705 1.80007 15.1866 5.28368C9.90259 8.76729 5.77028 13.7395 3.31219 19.5716C0.854096 25.4037 0.180618 31.8338 1.37692 38.0486C2.57323 44.2635 5.58559 49.9841 10.0331 54.4869C14.4806 58.9898 20.1634 62.0727 26.363 63.3458C32.5626 64.619 39.0006 64.0252 44.8627 61.6395C50.7248 59.2538 55.7479 55.1834 59.2967 49.943C62.8454 44.7026 64.7606 38.5275 64.7999 32.1987V32.0006C64.8141 27.811 64.0026 23.6596 62.4119 19.7837C60.8211 15.9078 58.4823 12.3833 55.529 9.41154C52.5756 6.43982 49.0657 4.07913 45.1997 2.46437C41.3337 0.849604 37.1874 0.012414 32.9977 0.00060956Z" fill="#EA2328"/>
</svg>
