<svg width="310" height="48" viewBox="0 0 310 48" fill="none" xmlns="http://www.w3.org/2000/svg">
<path d="M38.4654 5.65595C36.5392 3.73175 34.1462 2.33235 31.2277 1.39941C28.3092 0.46647 24.8654 0 20.8379 0H0V46.4721H20.8379C24.807 46.4721 28.3092 46.0055 31.2277 45.0726C34.1462 44.1397 36.5392 42.7403 38.4654 40.8161C40.3916 38.8919 41.7925 36.5012 42.7264 33.5858C43.6604 30.6703 44.1273 27.2301 44.1273 23.2069C44.1273 19.1836 43.6604 15.7434 42.7264 12.8279C41.7925 9.91248 40.3916 7.52182 38.4654 5.65595ZM31.4027 29.6792C30.9358 31.4284 30.177 32.8278 29.1264 33.8773C28.0758 34.927 26.6749 35.6849 24.9237 36.1514C23.1727 36.6178 21.0713 36.8512 18.5031 36.8512H11.4988V9.67925H18.5031C21.0713 9.67925 23.1727 9.91248 24.9237 10.3789C26.6749 10.8454 28.0758 11.6034 29.1264 12.653C30.177 13.7025 30.9358 15.1019 31.4027 16.8513C31.8697 18.6005 32.1031 20.6996 32.1031 23.2651C32.1031 25.8308 31.8697 27.9298 31.4027 29.6792Z" fill="black"/>
<path d="M80.4917 15.7432C79.3242 14.5771 77.8651 13.7024 76.0556 13.1777C74.2461 12.5946 72.0865 12.3613 69.6349 12.3613H51.1318V20.7578H69.0513C70.3353 20.7578 71.2109 21.0493 71.7947 21.5741C72.32 22.0988 72.6118 23.0319 72.6118 24.2563V24.6645H59.7121C56.1516 24.6645 53.4665 25.5974 51.5988 27.4632C49.731 29.3292 48.797 32.0697 48.797 35.5682C48.797 39.0667 49.731 41.7489 51.5988 43.6731C53.4665 45.5973 56.21 46.4718 59.7121 46.4718H83.9355V26.5887C83.9355 24.0814 83.6436 21.9822 83.1183 20.1746C82.5346 18.3671 81.659 16.9094 80.4917 15.7432ZM72.7285 38.1921H62.9225C62.1053 38.1921 61.4049 37.9588 60.9378 37.4924C60.471 37.0259 60.2374 36.3846 60.2374 35.5682C60.2374 34.6936 60.471 34.0522 60.9378 33.5857C61.4049 33.1192 62.0469 32.886 62.9225 32.886H72.7285V38.1921Z" fill="black"/>
<path d="M105.065 37.376C104.598 36.9094 104.365 36.1515 104.365 34.9852V20.7579H114.871V12.3615H104.365V3.20703H92.9826V12.3032H88.2546V20.6997H92.9826V35.5684C92.9826 37.5508 93.1576 39.2418 93.5662 40.6412C93.9748 42.0406 94.5585 43.1485 95.4341 44.0232C96.3095 44.8977 97.4186 45.5392 98.8194 45.889C100.22 46.2971 101.913 46.4721 103.898 46.4721H114.988V38.0757H107.458C106.291 38.0757 105.532 37.8423 105.065 37.376Z" fill="black"/>
<path d="M150.593 15.7432C149.426 14.5771 147.967 13.7024 146.157 13.1777C144.348 12.5946 142.188 12.3613 139.736 12.3613H121.233V20.7578H139.153C140.437 20.7578 141.312 21.0493 141.896 21.5741C142.421 22.0988 142.713 23.0319 142.713 24.2563V24.6645H129.814C126.253 24.6645 123.568 25.5974 121.7 27.4632C119.833 29.3292 118.898 32.0697 118.898 35.5682C118.898 39.0667 119.833 41.7489 121.7 43.6731C123.568 45.5973 126.312 46.4718 129.814 46.4718H154.037V26.5887C154.037 24.0814 153.745 21.9822 153.22 20.1746C152.636 18.3671 151.761 16.9094 150.593 15.7432ZM142.772 38.1921H132.966C132.148 38.1921 131.448 37.9588 130.981 37.4924C130.514 37.0259 130.281 36.3846 130.281 35.5682C130.281 34.6936 130.514 34.0522 130.981 33.5857C131.448 33.1192 132.09 32.886 132.966 32.886H142.772V38.1921Z" fill="black"/>
<path d="M184.156 18.3089H175.458C174.057 18.3089 172.949 17.9591 172.248 17.201C171.489 16.4431 171.139 15.3935 171.139 13.9941C171.139 12.5947 171.489 11.5451 172.248 10.7871C173.006 10.0291 174.057 9.67925 175.458 9.67925H196.297V0H172.949C168.279 0 164.777 1.16617 162.442 3.44021C160.107 5.71425 158.999 9.21278 158.999 13.9358C158.999 18.6588 160.166 22.1573 162.442 24.4896C164.719 26.8219 168.222 27.9882 172.949 27.9882H181.821C184.74 27.9882 186.257 29.4458 186.257 32.4197C186.257 35.3933 184.797 36.8511 181.821 36.8511H160.282V46.5303H184.097C188.767 46.5303 192.268 45.3642 194.661 42.9735C197.055 40.5829 198.281 37.0843 198.281 32.4197C198.281 27.755 197.055 24.2564 194.661 21.9241C192.268 19.5917 188.767 18.3089 184.156 18.3089Z" fill="black"/>
<path d="M218.885 37.376C218.418 36.9094 218.184 36.1515 218.184 34.9852V20.7579H228.692V12.3615H218.184V3.20703H206.803V12.3032H202.075V20.6997H206.803V35.5684C206.803 37.5508 206.978 39.2418 207.387 40.6412C207.795 42.0406 208.379 43.1485 209.255 44.0232C210.13 44.8977 211.239 45.5392 212.64 45.889C214.041 46.2971 215.734 46.4721 217.718 46.4721H228.808V38.0757H221.278C220.17 38.0757 219.353 37.8423 218.885 37.376Z" fill="black"/>
<path d="M264.413 15.7432C263.246 14.5771 261.787 13.7024 259.977 13.1777C258.168 12.5946 256.009 12.3613 253.557 12.3613H235.053V20.7578H252.972C254.257 20.7578 255.133 21.0493 255.716 21.5741C256.241 22.0988 256.533 23.0319 256.533 24.2563V24.6645H243.634C240.073 24.6645 237.389 25.5974 235.521 27.4632C233.653 29.3292 232.719 32.0697 232.719 35.5682C232.719 39.0667 233.653 41.7489 235.521 43.6731C237.389 45.5973 240.132 46.4718 243.634 46.4718H267.857V26.5887C267.857 24.0814 267.566 21.9822 267.04 20.1746C266.456 18.3671 265.58 16.9094 264.413 15.7432ZM256.592 38.1921H246.786C245.968 38.1921 245.269 37.9588 244.801 37.4924C244.334 37.0259 244.1 36.3846 244.1 35.5682C244.1 34.6936 244.334 34.0522 244.801 33.5857C245.269 33.1192 245.911 32.886 246.786 32.886H256.592V38.1921Z" fill="black"/>
<path d="M296.633 29.2708L309.24 12.3613H297.101L290.154 22.2154L283.208 12.3613H270.6L283.208 29.2708L269.9 46.4718H282.625L289.803 36.268L296.926 46.4718H309.941L296.633 29.2708Z" fill="black"/>
</svg>
