<svg width="180" height="62" viewBox="0 0 180 62" fill="none" xmlns="http://www.w3.org/2000/svg">
<path d="M31.5 0.5C27.6 0.5 24.5 3.6 24.5 7.5V16.2C24.4 16.2 24.3 16.2 24.1 16.2H11.1C8.20001 16.2 5.40001 17.4 3.40001 19.4C1.40001 21.4 0.200012 24.2 0.200012 27.1V50.5C0.200012 53.4 1.30001 56.1 3.40001 58.2C5.50001 60.3 8.20001 61.4 11.1 61.4H27.7C30.6 61.4 33.3 60.2 35.4 58.1C37.4 56.1 38.5 53.3 38.5 50.4V7.4C38.5 3.7 35.4 0.5 31.5 0.5ZM24.5 47.5H14.3V30.3H24.1C24.2 30.3 24.3 30.3 24.5 30.3V47.5Z" fill="#29E3C1"/>
<path d="M172.8 47.5001H167.7V30.6001H172.5C176.4 30.6001 179.5 27.5001 179.5 23.6001C179.5 19.7001 176.4 16.6001 172.5 16.6001H167.7V7.6001C167.7 3.7001 164.6 0.600098 160.7 0.600098C156.8 0.600098 153.7 3.7001 153.7 7.6001V16.6001H148.3C144.4 16.6001 141.3 19.7001 141.3 23.6001C141.3 27.5001 144.4 30.6001 148.3 30.6001H153.7V53.9001C153.7 54.1001 153.6 54.3001 153.6 54.5001C153.6 58.4001 156.7 61.5001 160.6 61.5001H172.8C176.7 61.5001 179.8 58.4001 179.8 54.5001C179.8 50.6001 176.6 47.5001 172.8 47.5001Z" fill="#29E3C1"/>
<path d="M79.6 1.2002H64.9C58.4 1.2002 53.1 6.5002 53.1 13.1002V49.4002C53.1 56.0002 58.4 61.3002 64.9 61.3002H79.6C86.1 61.3002 91.4 56.0002 91.4 49.4002V13.1002C91.4 6.6002 86.1 1.2002 79.6 1.2002ZM77.4 47.3002H67.2V15.3002H77.4V47.3002Z" fill="#29E3C1"/>
<path d="M132.1 47.5H128.9V7.6C128.9 4 126.2 1.1 122.8 0.699997C122.3 0.599997 121.9 0.5 121.4 0.5H109C105.1 0.5 102 3.6 102 7.5C102 11.4 105.1 14.5 109 14.5H114.8V47.5H109.7C105.8 47.5 102.7 50.6 102.7 54.5C102.7 58.4 105.8 61.5 109.7 61.5H132.1C136 61.5 139.1 58.4 139.1 54.5C139.1 50.6 135.9 47.5 132.1 47.5Z" fill="#29E3C1"/>
</svg>
