<svg width="133" height="152" viewBox="0 0 133 152" fill="none" xmlns="http://www.w3.org/2000/svg">
<path d="M86.1 150.3H87.9L117.2 135.6L117.7 134.9V18.0002L117.2 17.3002L87.9 2.7002H86L86.1 150.3Z" fill="#5294CF"/>
<path d="M47.9 150.3H46.1L16.8 135.6L16.2 134.6L15.9 18.6002L16.8 17.3002L46.1 2.7002H47.9V150.3Z" fill="#1F5B98"/>
<path d="M46.2 2.7002H87.9V150.4H46.2V2.7002Z" fill="#2D72B8"/>
<path d="M132.5 73.2003L131.5 73.0003L117.4 71.7003L117.2 71.8003L87.9 70.6003H46.2L16.9 71.8003V49.4003V49.3003L46.2 42.5003H87.9L117.2 49.3003L128 55.0003V51.3003L132.6 50.8003L132 50.0003L117.6 39.7003L117.2 39.8003L87.9 30.7003H46.2L16.9 39.8003V17.3003L1.6 35.3003V51.0003L1.7 50.9003L6.1 51.4003V55.2003L1.5 57.6003V73.2003H1.6L6 73.3003V79.9003L2.2 80.0003L1.5 79.9003V95.5003L6.1 98.0003V101.8L1.7 102.3L1.5 102.2V117.9L16.8 135.9V113.4L46.1 122.5H87.8L117.2 113.4L117.6 113.6L131.8 103.4L132.4 102.4L127.8 101.9V98.2003L127.2 98.0003L117.5 103.3L117.1 104L87.7 110.8H46L16.7 104V81.5003L46 82.7003H87.7L117 81.5003L117.7 81.8003L131.4 80.6003L132.4 80.1003L127.8 80.0003V73.4003L132.5 73.2003Z" fill="#1A476F"/>
<path d="M117.2 113.2V135.7L132.5 117.7V102.1L117.2 113.2Z" fill="#2D72B8"/>
<path d="M117.2 103.7L132.5 95.5003V79.8003L117.2 81.2003V103.7Z" fill="#2D72B8"/>
<path d="M117.3 49.3003L117.2 71.7003L132.5 73.1003V57.4003L117.3 49.3003Z" fill="#2D72B8"/>
<path d="M117.3 39.9003L132.6 50.9003V35.3003L117.3 17.3003V39.9003Z" fill="#2D72B8"/>
</svg>
