<svg width="115" height="116" viewBox="0 0 115 116" fill="none" xmlns="http://www.w3.org/2000/svg">
<path d="M110.519 60.5283C110.519 56.2154 109.175 52.0513 106.786 48.6308C104.396 45.0616 100.812 42.5334 96.7792 41.0462C97.0779 39.1129 97.3766 37.3283 97.3766 35.3949C97.3766 29.1488 95.4351 23.0513 91.7013 17.8462C87.9675 12.6411 82.7403 8.92313 76.7662 6.98979C70.7922 5.05646 64.2208 5.05646 58.2468 6.98979C52.2727 8.92313 47.0455 12.7898 43.3117 17.8462C40.6234 15.7642 37.1883 14.5744 33.7532 14.5744C30.3182 14.5744 26.8831 15.6154 24.1948 17.6975C21.3571 19.7795 19.4156 22.6052 18.3701 25.877C17.3247 29.1488 17.474 32.718 18.6688 35.8411C14.6364 37.3283 11.2013 40.0052 8.66234 43.4257C6.12337 46.9949 4.77922 51.159 4.77922 55.3231C4.77922 59.6359 6.12338 63.8 8.51299 67.2206C11.0519 70.7898 14.487 73.318 18.5195 74.8052C18.2208 76.7385 17.9221 78.5231 17.9221 80.4565C17.9221 86.7026 19.8636 92.8001 23.5974 97.8565C27.3312 102.913 32.5584 106.631 38.5325 108.564C44.5065 110.497 50.9286 110.497 57.0519 108.564C63.026 106.631 68.2532 102.764 71.8377 97.7077C74.526 99.7898 77.8117 100.98 81.3961 100.98C84.8312 100.98 88.2662 99.9385 90.9546 98.0052C93.7922 95.9231 95.7338 93.0975 96.7792 89.8257C97.8247 86.5539 97.6753 82.9847 96.4805 79.8616C100.513 78.3744 104.097 75.6975 106.487 72.277C109.026 69.0052 110.37 64.8411 110.519 60.5283Z" fill="white"/>
<path d="M46.2987 50.7128L69.448 61.2718L92.7467 40.8975C93.0454 39.2616 93.1948 37.4769 93.1948 35.841C93.1948 30.3385 91.4026 24.8359 88.1169 20.3744C84.8312 15.9128 80.2013 12.641 74.8247 11.0051C69.448 9.36925 63.7727 9.51797 58.5455 11.3026C53.3182 13.0872 48.6883 16.5077 45.5519 21.118L41.8182 41.1949L46.2987 50.7128Z" fill="#FEC514"/>
<path d="M22.4026 75.1027C22.1039 76.7386 21.9545 78.5232 21.9545 80.3078C21.9545 85.8104 23.7467 91.3129 27.0325 95.7745C30.3182 100.236 35.0974 103.508 40.3247 105.144C45.7013 106.78 51.3766 106.631 56.6039 104.846C61.8312 103.062 66.461 99.4924 69.5974 94.8822L73.4805 74.9539L68.4026 65.1386L45.2532 54.5796L22.4026 75.1027Z" fill="#00BFB3"/>
<path d="M22.2532 35.2463L38.0844 38.9642L41.5195 20.9694C39.4286 19.3335 36.7403 18.4412 34.0519 18.4412C31.3636 18.4412 28.6753 19.3335 26.5844 20.8206C24.3442 22.4565 22.8506 24.6873 22.1039 27.2155C21.2078 30.0412 21.3571 32.7181 22.2532 35.2463Z" fill="#F04E98"/>
<path d="M20.9091 38.9641C17.474 40.1539 14.3377 42.3846 12.2468 45.359C10.1559 48.3333 8.96104 51.9026 8.96104 55.4718C8.96104 59.041 10.0065 62.4615 12.0974 65.2872C14.039 68.2615 17.026 70.4923 20.3117 71.6821L42.5649 51.6051L38.5325 42.9795L20.9091 38.9641Z" fill="#1BA9F5"/>
<path d="M73.7792 94.882C75.8701 96.5179 78.5584 97.4102 81.2468 97.4102C83.9351 97.4102 86.6234 96.5179 88.7143 95.0307C90.9545 93.3948 92.4481 91.1641 93.1948 88.6359C93.9416 86.1077 93.9416 83.282 92.8961 80.7538L77.0649 77.0359L73.7792 94.882Z" fill="#93C90E"/>
<path d="M76.9156 72.8718L94.3896 76.8871C97.8247 75.6974 100.961 73.4666 103.052 70.4923C105.143 67.5179 106.338 63.9487 106.338 60.3794C106.338 56.8102 105.292 53.3897 103.201 50.5641C101.26 47.7384 98.2727 45.5077 94.987 44.1692L72.1364 64.0974L76.9156 72.8718Z" fill="#0077CC"/>
</svg>
