<svg width="130" height="130" viewBox="0 0 130 130" fill="none" xmlns="http://www.w3.org/2000/svg">
<g clip-path="url(#clip0_2_1177)">
<path fill-rule="evenodd" clip-rule="evenodd" d="M29.6 99.9C30.8 109.4 36 116.5 43.9 123.6L41.1 122.2C18.7 112.5 2.99998 90.2 2.99998 64.3C2.99998 31.3 28.4 3.9 61.4 1.5C28.5 3.9 2.99998 31.4 2.99998 64.3C2.99998 31.3 28.4 3.9 61.4 1.5C23.6 8.8 -12.6 52.4 29.6 99.9Z" fill="#111111"/>
<path fill-rule="evenodd" clip-rule="evenodd" d="M115.7 44.0999C112.9 23.6999 97.2 9.39995 68.7 1.19995C102.4 2.69995 128.9 30.3999 128.9 64.0999C128.9 98.8999 102.7 125.8 68.6 127.4C65.4 127.6 62.2 127 59 126V55C60 53.4 60 51.9 59 50.3V35.3H62.5C61.1 34.4 60 33.7 59 33.3V28.9C77.3 35.9 85.7 36.6999 84.5 31.1999C86.1 35.6999 84.7 37.7 80.4 37.3C75.4 36.5 72.3 36.9 71 38.4C80 42.9 84.8 47.2 85.4 51.4C86.3 58.5 82.9 66.3 75.4 74.8C70.6 80.7 73.1 87 80.8 88C104.6 86.8 116.3 72.2 115.7 44.0999ZM59 126.1C51.7 123.8 45.2 119.3 42 116.1C36.4 110.3 32.5 100.9 31.1 87.3999C31.1 87.2999 31.1 87.2 31.1 87.2V82.6C32 71.8 39.2 64.0999 52.8 59.6999C55.9 58.1999 58 56.5999 59 55.0999V126.1ZM59 50.4C58.6 49.7 57.9 49 57.1 48.3C56.4 47.6 54.8 46.7999 52.3 46.0999C46.8 45.8999 43.8 47.3 43.3 50.3C33.9 46.1 33.6 41.4 42.5 36C44.2 35.2999 46.8 35.0999 50.1 35.1999C48.7 29.0999 51.1 26.6999 57.1 28.1999C57.7 28.3999 58.3 28.7 59 28.9V33.3C56.2 32 55.1 32.7 55.7 35.3H59V50.4Z" fill="#111111"/>
<path fill-rule="evenodd" clip-rule="evenodd" d="M29.3 100.6C30.5 110.1 35.7 117.2 43.6 124.3L40.8 122.9C18.4 113.2 2.69999 90.9001 2.69999 65.0001C2.69999 32.0001 28.1 4.6001 61.1 2.2001C28 4.6001 2.49998 32.0001 2.49998 64.9001C2.49998 31.9001 27.9 4.5001 60.9 2.1001C23.2 9.6001 -12.9 53.1001 29.3 100.6Z" fill="url(#paint0_linear_2_1177)"/>
<path fill-rule="evenodd" clip-rule="evenodd" d="M115.3 44.9C112.5 24.5 96.8 10.2 68.3 2C102 3.5 128.5 31.2 128.5 64.9C128.5 99.7 102.3 126.6 68.2 128.2C65 128.4 61.9 127.8 58.7 126.8V55.8C59.7 54.2 59.7 52.7 58.7 51.1V36H62.1C60.7 35.1 59.7 34.4 58.7 34L58.6 29.6C76.9 36.6 85.3 37.4 84.1 31.9C85.7 36.4 84.3 38.4 80 38C75 37.2 71.9 37.6 70.6 39.1C79.6 43.6 84.4 47.9 85 52.1C85.9 59.2 82.5 67 75 75.5C70.2 81.4 72.7 87.7 80.4 88.7C104.3 87.6 115.9 72.9 115.3 44.9ZM58.7 126.8C51.4 124.5 44.9 120 41.7 116.8C36.1 111 32.2 101.6 30.8 88.1C30.8 88 30.8 87.9 30.8 87.9V83.3C31.7 72.5 38.9 64.8 52.5 60.4C55.6 58.9 57.7 57.3 58.7 55.8V126.8ZM58.7 51.1C58.3 50.4 57.6 49.7 56.8 49C56.1 48.3 54.5 47.5 52 46.8C46.5 46.6 43.5 48 43 51C33.6 46.8 33.3 42.1 42.2 36.7C43.9 36 46.5 35.8 49.8 35.9C48.4 29.8 50.8 27.4 56.8 28.9C57.4 29.1 57.9 29.4 58.6 29.6L58.7 34C55.9 32.7 54.8 33.4 55.4 36H58.7V51.1Z" fill="url(#paint1_linear_2_1177)"/>
</g>
<defs>
<linearGradient id="paint0_linear_2_1177" x1="31.7162" y1="124.273" x2="31.7162" y2="2.1069" gradientUnits="userSpaceOnUse">
<stop stop-color="#F40A0B"/>
<stop offset="1" stop-color="#F5E710"/>
</linearGradient>
<linearGradient id="paint1_linear_2_1177" x1="79.6259" y1="128.346" x2="79.6259" y2="2.13799" gradientUnits="userSpaceOnUse">
<stop stop-color="#F40A0B"/>
<stop offset="1" stop-color="#F5E710"/>
</linearGradient>
<clipPath id="clip0_2_1177">
<rect width="130" height="130" fill="white"/>
</clipPath>
</defs>
</svg>
