<svg width="140" height="138" viewBox="0 0 140 138" fill="none" xmlns="http://www.w3.org/2000/svg">
<g clip-path="url(#clip0_2_127)">
<path d="M32.375 88.605V121.353C32.375 130.443 56.5469 137.672 86.2969 137.672C116.047 137.672 140.219 130.334 140.219 121.353V88.605H32.375Z" fill="#881421"/>
<path d="M32.375 52.6812V88.7145C32.375 97.805 56.5469 105.034 86.2969 105.034C116.047 105.034 140.219 97.6954 140.219 88.7145V52.6812H32.375Z" fill="#AF2031"/>
<path d="M32.375 16.6475V52.6808C32.375 61.7713 56.5469 68.9998 86.2969 68.9998C116.047 68.9998 140.219 61.6617 140.219 52.6808V16.6475H32.375Z" fill="#C94F60"/>
<path d="M86.2969 32.9667C116.077 32.9667 140.219 25.6604 140.219 16.6477C140.219 7.6349 116.077 0.328613 86.2969 0.328613C56.5166 0.328613 32.375 7.6349 32.375 16.6477C32.375 25.6604 56.5166 32.9667 86.2969 32.9667Z" fill="#E08095"/>
<path opacity="0.1" d="M72.1875 29.6812H32.375V111.495H72.1875C75.4688 111.495 78.2031 108.757 78.2031 105.472V35.705C78.2031 32.4192 75.4688 29.6812 72.1875 29.6812Z" fill="black"/>
<path opacity="0.2" d="M68.9062 32.9668H32.375V114.781H68.9062C72.1875 114.781 74.9219 112.043 74.9219 108.757V38.9906C74.9219 35.7049 72.1875 32.9668 68.9062 32.9668Z" fill="black"/>
<path opacity="0.2" d="M68.9062 32.9668H32.375V108.319H68.9062C72.1875 108.319 74.9219 105.581 74.9219 102.295V38.9906C74.9219 35.7049 72.1875 32.9668 68.9062 32.9668Z" fill="black"/>
<path opacity="0.2" d="M65.625 32.9668H32.375V108.319H65.625C68.9063 108.319 71.6406 105.581 71.6406 102.295V38.9906C71.6406 35.7049 68.9063 32.9668 65.625 32.9668Z" fill="black"/>
<path d="M5.6875 32.9668H65.625C68.9063 32.9668 71.6406 35.7049 71.6406 38.9906V99.0097C71.6406 102.295 68.9063 105.033 65.625 105.033H5.6875C2.40625 105.033 -0.328125 102.295 -0.328125 99.0097V38.9906C-0.328125 35.7049 2.40625 32.9668 5.6875 32.9668Z" fill="url(#paint0_linear_2_127)"/>
<path d="M31.3906 49.5049H40.25L54.4688 88.4954H46.1562L42.9844 79.1858H28.3281L25.2656 88.4954H16.9531L31.3906 49.5049ZM41.0156 73.162L36.5313 59.0335C36.2031 58.0477 35.875 56.9525 35.6562 55.8573H35.5469C35.3281 56.9525 35.1094 58.0477 34.7813 59.143L30.1875 73.162H41.0156Z" fill="white"/>
</g>
<defs>
<linearGradient id="paint0_linear_2_127" x1="12.2003" y1="28.2969" x2="59.2349" y2="109.648" gradientUnits="userSpaceOnUse">
<stop stop-color="#B72C3F"/>
<stop offset="0.5" stop-color="#B12334"/>
<stop offset="1" stop-color="#9D1623"/>
</linearGradient>
<clipPath id="clip0_2_127">
<rect width="140" height="138" fill="white"/>
</clipPath>
</defs>
</svg>
