<svg width="31" height="64" viewBox="0 0 31 64" fill="none" xmlns="http://www.w3.org/2000/svg">
<path d="M20.8594 7.13889C18.1238 3.96174 15.7669 0.712429 15.2883 0.0456474C15.2784 0.0315614 15.2651 0.0200504 15.2497 0.0121008C15.2343 0.0041513 15.2171 -1.4679e-06 15.1997 3.89215e-10C15.1823 1.46867e-06 15.1651 0.0041563 15.1497 0.0121084C15.1343 0.0200606 15.121 0.031573 15.1111 0.0456607C14.6326 0.712457 12.2762 3.96175 9.54067 7.13889C-13.9056 36.5365 13.2413 56.3707 13.2413 56.3707L13.4614 56.5212C13.6672 59.5898 14.1785 64 14.1785 64H16.2215C16.2215 64 16.7307 59.6088 16.9374 56.5411L17.1588 56.3707C17.1588 56.3707 44.3054 36.5366 20.8594 7.13889ZM15.2001 55.9396H15.1999C15.1999 55.9396 13.9829 54.9179 13.6544 54.4061L13.6515 54.351L15.1235 22.3454C15.1244 22.326 15.1329 22.3078 15.1471 22.2944C15.1614 22.281 15.1803 22.2736 15.2 22.2736C15.2197 22.2736 15.2386 22.281 15.2529 22.2944C15.2671 22.3078 15.2756 22.326 15.2765 22.3454L16.7485 54.3509L16.7457 54.4059C16.4174 54.9177 15.2001 55.9396 15.2001 55.9396Z" fill="#00684A"/>
</svg>
