<svg width="40" height="40" viewBox="0 0 40 40" fill="none" xmlns="http://www.w3.org/2000/svg">
<g clip-path="url(#clip0_2_1337)">
<path d="M28.5868 29.3304C28.8316 27.269 28.75 26.9626 30.2463 27.3247L30.6272 27.3526C31.7698 27.4083 33.2662 27.1576 34.164 26.7397C36.0684 25.8483 37.1838 24.3161 35.3066 24.734C31.0353 25.6254 30.736 24.149 30.736 24.149C35.2522 17.2961 37.1294 8.6047 35.4971 6.4597C31.0625 0.637561 23.3632 3.39542 23.2272 3.47899H23.1728C22.3294 3.28399 21.3772 3.20042 20.3162 3.17256C18.3845 3.14471 16.9154 3.70185 15.8 4.56542C15.8 4.56542 2.08822 -1.22887 2.71396 11.8361C2.84999 14.6218 6.6044 32.8683 11.0934 27.3526C12.7257 25.3468 14.3037 23.6476 14.3037 23.6476C15.0926 24.1768 16.0176 24.4554 17.0243 24.344L17.1059 24.2883C17.0787 24.539 17.0787 24.7897 17.1331 25.0683C15.9904 26.3776 16.3169 26.6283 14.0044 27.1018C11.6647 27.6033 13.0522 28.4668 13.95 28.6897C15.0382 28.9683 17.5412 29.3583 19.2551 26.9347L19.2007 27.2133C19.6632 27.5754 19.636 29.8876 19.6904 31.5311C19.7448 33.1747 19.8537 34.7068 20.1801 35.5983C20.5066 36.4897 20.8875 38.8297 23.9073 38.1611C26.4919 37.5761 28.4235 36.7683 28.5868 29.3304Z" fill="black"/>
<path d="M22.9551 39.8883C21.5676 39.8883 20.6698 39.3312 20.1257 38.8019C19.3095 38.0219 18.9831 36.9912 18.7926 36.3783C18.7654 36.2947 18.7382 36.1833 18.711 36.1276C18.3301 35.069 18.1941 33.5369 18.1125 31.559C18.1125 31.2804 18.0853 30.9462 18.0853 30.6397C18.0853 30.4447 18.0853 30.2219 18.0581 29.9712C16.7522 30.5562 15.2286 30.6676 13.5963 30.2497C12.8617 30.0547 12.1 29.6926 11.6375 29.1076C10.3316 30.2219 9.10733 30.0547 8.42718 29.8319C7.20291 29.414 6.14188 28.2719 5.13526 26.3219C4.42791 24.929 3.72056 23.1462 3.09482 20.9733C1.97938 17.2126 1.27203 13.229 1.19041 11.9197C0.999971 7.79688 2.08821 4.84402 4.42791 3.17259C6.35953 1.77973 8.9985 1.33402 12.2904 1.89116C13.6779 2.11402 14.9022 2.50402 15.6367 2.75473C16.997 1.91902 18.575 1.52902 20.3978 1.55688C21.35 1.58473 22.275 1.66831 23.1184 1.80759C24.0434 1.52902 25.7845 1.11116 27.7706 1.13902C31.525 1.19473 34.6264 2.67116 36.7485 5.45688C38.1904 7.35116 37.6735 11.1119 36.9389 13.9533C36.15 17.1012 34.7625 20.4719 33.0485 23.3969C33.511 23.369 34.1095 23.3133 34.9529 23.1462C37.0206 22.7004 37.5919 23.954 37.7279 24.344C38.3809 26.3497 35.6331 27.8262 34.7897 28.2162C33.7014 28.7176 31.9603 29.0519 30.5184 28.9683H30.4639L30.2191 28.9404C30.2191 28.9962 30.1919 29.0797 30.1919 29.1354C30.1919 29.219 30.1647 29.3305 30.1647 29.4419C30.0831 33.2304 29.5389 35.654 28.4507 37.2419C27.3081 38.9412 25.6757 39.4147 24.2882 39.7212C23.7985 39.8326 23.3632 39.8883 22.9551 39.8883ZM20.2073 25.9319C21.1051 26.684 21.1867 28.0212 21.2684 30.5562C21.2684 30.8626 21.2956 31.169 21.2956 31.4476C21.3228 32.2833 21.4044 34.2054 21.7037 35.0133C21.7581 35.1247 21.7853 35.2362 21.8125 35.3754C22.1389 36.4062 22.275 36.824 23.6081 36.5454C24.7779 36.2947 25.3764 36.0719 25.8389 35.3754C26.5191 34.3726 26.9272 32.3112 26.9816 29.3026L28.5595 29.3583L26.9816 29.1633C27.0088 29.024 27.0088 28.9126 27.036 28.8012C27.172 27.6033 27.2809 26.6283 28.1242 26.0154C28.6684 25.6254 29.2669 25.5697 29.7838 25.6254C29.3485 25.1797 29.2125 24.734 29.1853 24.5112L29.0492 23.8426L29.4301 23.2854C31.3889 20.3047 33.0213 16.6276 33.8919 13.2012C34.7625 9.71902 34.5176 7.85259 34.2728 7.51831C30.736 2.89402 24.6147 4.78831 23.9345 5.01116L23.8257 5.06688L23.2272 5.17831L22.9279 5.12259C22.1662 4.95545 21.2956 4.87188 20.3706 4.84402C18.9559 4.81616 17.786 5.1783 16.8338 5.90259L16.0992 6.45973L15.2559 6.09759C13.5963 5.40116 8.78086 4.03616 6.25071 5.84688C4.86321 6.84973 4.21027 8.85545 4.3735 11.7804C4.42791 12.7833 5.10806 16.5997 6.19629 20.249C7.71982 25.2633 9.05291 26.6562 9.43379 26.7676C9.48821 26.7397 9.65144 26.6562 9.9235 26.3219C11.5831 24.2883 13.1338 22.589 13.2154 22.5333L14.1404 21.5304L15.2559 22.2826C15.6367 22.5333 16.0448 22.7004 16.4801 22.7283L19.1191 20.4162L18.7382 24.4276C18.7382 24.5112 18.7382 24.6226 18.7654 24.7897L18.8742 25.5419L18.3845 26.1269C18.3845 26.1269 18.3845 26.1269 18.3573 26.1547L19.5816 26.7397L20.2073 25.9319Z" fill="black"/>
<path d="M35.3338 24.7345C31.0625 25.6259 30.7632 24.1495 30.7632 24.1495C35.2794 17.2966 37.1566 8.60522 35.5514 6.46022C31.1169 0.665933 23.4176 3.39593 23.2816 3.4795H23.2272C22.3838 3.2845 21.4316 3.20093 20.3705 3.17308C18.4389 3.14522 16.9698 3.70236 15.8544 4.56593C15.8544 4.56593 2.14261 -1.22835 2.76834 11.8366C2.90437 14.6224 6.65878 32.8688 11.1478 27.3531C12.7801 25.3474 14.358 23.6481 14.358 23.6481C15.147 24.1774 16.072 24.4559 17.0786 24.3445L17.1603 24.2888C17.133 24.5395 17.133 24.7902 17.1875 25.0688C16.0448 26.3781 16.3713 26.6288 14.0588 27.1024C11.7191 27.6038 13.1066 28.4674 14.0044 28.6902C15.0926 28.9688 17.5955 29.3588 19.3095 26.9352L19.2551 27.2138C19.7176 27.5759 20.0169 29.6374 19.9625 31.4759C19.908 33.3424 19.8808 34.5959 20.2345 35.5988C20.5882 36.6016 20.9419 38.8302 23.9617 38.1616C26.4919 37.6045 27.7978 36.1559 27.9882 33.7602C28.1242 32.0609 28.4235 32.3116 28.4235 30.7795L28.6683 30.0552C28.9404 27.7431 28.7228 26.9909 30.2735 27.3531L30.6544 27.3809C31.797 27.4366 33.2933 27.1859 34.1911 26.7681C36.0683 25.8209 37.1838 24.3166 35.3338 24.7345Z" fill="#336791"/>
<path d="M23.1184 38.8578C20.561 38.8578 19.772 36.7963 19.4184 35.9328C18.9286 34.707 18.8198 30.0549 18.9559 26.0156C18.9559 25.7092 19.2007 25.4863 19.5 25.4863C19.7992 25.4863 20.0169 25.737 20.0169 26.0435C19.9081 30.5563 20.0713 34.6235 20.425 35.5149C20.9691 36.9078 21.8125 38.1335 24.1522 37.632C26.4103 37.1306 27.2264 36.2949 27.5801 34.0663C27.8794 32.3392 28.4507 27.492 28.5051 26.517C28.5323 26.2106 28.7772 25.9878 29.0764 26.0156C29.3757 26.0435 29.5934 26.2942 29.5661 26.6006C29.4845 27.6035 28.9132 32.4785 28.6139 34.2613C28.1514 36.9078 27.0088 38.1335 24.3426 38.7185C23.9073 38.8299 23.4992 38.8578 23.1184 38.8578Z" fill="white"/>
<path d="M9.40658 28.8568C9.16172 28.8568 8.94408 28.8011 8.75364 28.7454C7.09408 28.1883 5.51614 25.4304 4.07422 20.5833C2.98599 16.9061 2.27864 13.0618 2.22422 11.8083C2.06099 8.0754 2.98599 5.45683 5.02643 3.9804C9.0257 1.08326 15.7728 3.84112 16.0448 3.95254C16.3169 4.06397 16.4529 4.3704 16.3441 4.64897C16.2353 4.92754 15.936 5.06683 15.6639 4.9554C15.5823 4.92754 9.16172 2.30897 5.65216 4.87183C3.93819 6.1254 3.14922 8.43754 3.31246 11.7525C3.36687 12.8111 4.01981 16.544 5.13525 20.2768C6.41393 24.5947 7.88305 27.2968 9.13452 27.7147C9.32496 27.7704 9.92349 27.9933 10.7669 26.9347C12.3992 24.929 13.8955 23.3133 13.9228 23.3133C14.1132 23.0904 14.4669 23.0904 14.6573 23.2854C14.8478 23.4804 14.875 23.8425 14.6845 24.0375C14.6573 24.0654 13.1882 25.6254 11.583 27.6033C10.7669 28.5783 10.0323 28.8568 9.40658 28.8568Z" fill="white"/>
<path d="M30.736 24.6226C30.6272 24.6226 30.5456 24.5948 30.4368 24.539C30.1919 24.3719 30.1375 24.0376 30.3007 23.7869C34.8441 16.8783 36.4493 8.52119 35.089 6.73833C33.375 4.4819 30.9537 3.3119 27.8794 3.25619C25.6213 3.20047 23.7985 3.78547 23.4993 3.8969C23.4721 3.8969 23.4448 3.92476 23.4176 3.92476C23.0912 4.03619 22.8463 3.84119 22.7647 3.64619C22.6559 3.39547 22.7375 3.08904 22.9823 2.94976C23.1728 2.83833 25.2676 2.1419 27.7706 2.16976C31.1985 2.19762 34.0279 3.56261 35.9323 6.06976C37.2382 7.76904 36.3676 11.9198 35.9596 13.619C35.0346 17.2683 33.2934 21.1962 31.1985 24.3998C31.0625 24.539 30.8993 24.6226 30.736 24.6226Z" fill="white"/>
<path d="M30.9537 27.8258C30.1647 27.8258 29.4573 27.7144 29.0221 27.4637C28.5868 27.1851 28.5051 26.8229 28.4779 26.6279C28.3691 24.5387 29.4573 24.1487 30.0559 23.9537C29.9743 23.8422 29.8654 23.7029 29.7838 23.5915C29.4573 23.1458 28.9676 22.5608 28.614 21.6694C28.5596 21.5301 28.3963 21.1958 28.1787 20.8337C27.0632 18.8001 24.7779 14.5937 26.2743 12.4208C26.9544 11.4179 28.2875 11.0279 30.2735 11.2229C30.0287 10.4429 29.3757 8.93865 28.1515 7.46222C26.7368 5.76294 24.2338 3.70151 20.3434 3.6458C18.3573 3.61794 16.7522 4.2308 15.5279 5.48437C12.7801 8.3258 12.889 13.4515 12.889 13.5072C12.889 13.8137 12.6713 14.0644 12.3721 14.0644C12.0728 14.0644 11.8279 13.8415 11.8279 13.5351C11.8279 13.3122 11.7191 7.88008 14.7662 4.73223C16.1809 3.2558 18.0853 2.53151 20.3706 2.55937C24.6147 2.61508 27.3625 4.84365 28.9132 6.68223C30.6 8.68794 31.4162 10.9165 31.4978 11.6687C31.5522 12.2537 31.1169 12.3651 31.0625 12.3929H30.8721C29.539 12.1701 27.825 12.1144 27.1721 13.0337C26.0566 14.6494 28.2331 18.6051 29.1309 20.2765C29.3757 20.7222 29.539 21.0287 29.6206 21.2237C29.9198 21.9758 30.3279 22.4772 30.6272 22.8672C30.8993 23.2294 31.1441 23.5358 31.2257 23.8979C31.2801 23.9815 31.8515 24.7894 35.1706 24.0929C36.0412 23.8979 36.5581 24.0651 36.7213 24.5665C37.0478 25.5415 35.3066 26.6558 34.3544 27.1294C33.511 27.5751 32.1507 27.8258 30.9537 27.8258ZM29.5662 26.5165C29.7022 26.6279 30.2463 26.7951 31.3073 26.7394C32.2868 26.6837 33.2934 26.4887 33.9191 26.1822C34.6265 25.8479 35.1434 25.4579 35.4154 25.1794H35.3882C33.2118 25.6529 31.6882 25.5694 30.8176 24.9844C30.7632 24.9565 30.7088 24.9287 30.6816 24.8729C30.6 24.9008 30.5456 24.9287 30.464 24.9287C29.9743 25.1237 29.4846 25.2351 29.5662 26.5165Z" fill="white"/>
<path d="M15.5279 29.3863C14.9838 29.3863 14.4125 29.3028 13.8412 29.1635C13.6779 29.1078 12.2088 28.7178 12.2088 27.7428C12.236 26.8514 13.4603 26.6006 13.9228 26.4892C15.5551 26.1549 15.6639 26.0156 16.1537 25.3471C16.3169 25.1521 16.4801 24.9014 16.7522 24.6228C17.5956 23.6478 18.4117 23.9821 18.7382 24.1492C19.2823 24.3721 19.7176 24.9292 19.9081 25.5699C20.0713 26.1549 19.9897 26.7399 19.6904 27.1856C18.6838 28.6342 17.2419 29.3863 15.5279 29.3863ZM13.4059 27.7985C13.5691 27.9099 13.8139 28.0214 14.1132 28.1049C15.5279 28.4671 17.4867 28.4949 18.847 26.5449C19.0103 26.3221 18.9559 26.0156 18.9014 25.8764C18.8198 25.5421 18.575 25.2635 18.3573 25.1521C18.0581 25.0406 17.922 24.9571 17.5684 25.3471C17.3507 25.6256 17.1603 25.8206 17.0242 26.0156C16.3713 26.8514 16.072 27.1299 14.1676 27.5478C13.7595 27.6314 13.5147 27.7428 13.4059 27.7985Z" fill="white"/>
<path d="M17.0787 25.514C16.8338 25.514 16.589 25.319 16.5618 25.0404C16.5618 24.9847 16.5346 24.9011 16.5346 24.8175C15.2831 24.7897 14.086 24.2325 13.1882 23.2575C12.0184 22.004 11.5015 20.2768 11.7463 18.5218C11.9912 16.6275 11.9096 14.9561 11.8551 14.0647C11.8279 13.814 11.8279 13.619 11.8279 13.5075C11.8279 13.3404 11.8279 12.8947 13.2426 12.1704C13.7323 11.9197 14.7118 11.474 15.8 11.3625C17.5956 11.1675 18.7926 11.9754 19.1191 13.6747C20.0713 18.1597 19.2007 20.1375 18.5478 21.5861C18.439 21.8647 18.3301 22.1154 18.2213 22.3382L18.1397 22.5611C17.8132 23.4804 17.514 24.2604 17.5956 24.8454C17.65 25.1518 17.4323 25.4304 17.1603 25.4582C17.1331 25.514 17.1059 25.514 17.0787 25.514ZM12.8618 13.6747C12.8618 13.7582 12.8618 13.8697 12.889 14.009C12.9434 14.9561 13.0522 16.6832 12.7801 18.689C12.5897 20.1097 12.9978 21.5025 13.95 22.5054C14.6846 23.2854 15.664 23.7311 16.6434 23.7311C16.7522 23.2575 16.9426 22.7282 17.1331 22.199L17.2147 21.9761C17.3235 21.6975 17.4323 21.419 17.5684 21.1404C18.1669 19.7475 18.9287 18.0204 18.0581 13.8975C17.8948 13.0897 17.4868 12.644 16.8066 12.4768C15.3647 12.1704 13.3243 13.2847 12.8618 13.6747Z" fill="white"/>
<path d="M15.7999 13.4519C15.7727 13.6191 16.1264 14.0926 16.5617 14.1762C16.997 14.2319 17.3779 13.8698 17.4051 13.7026C17.4323 13.5355 17.0786 13.3405 16.6433 13.2569C16.208 13.1734 15.8271 13.2848 15.7999 13.4519Z" fill="white"/>
<path d="M16.6433 14.3711C16.5889 14.3711 16.5617 14.3711 16.5345 14.3711C16.2625 14.3154 15.9632 14.1483 15.7728 13.8976C15.7183 13.814 15.5823 13.619 15.6095 13.4519C15.6095 13.3961 15.6639 13.3126 15.7455 13.229C15.936 13.0897 16.2625 13.034 16.6433 13.0897C17.1058 13.1454 17.5955 13.3961 17.5411 13.7304C17.5411 13.9811 17.1058 14.3711 16.6433 14.3711ZM15.9632 13.4797C15.9904 13.5911 16.2352 13.9254 16.5617 13.9811C16.8882 14.0369 17.1603 13.7583 17.2147 13.6469C17.1603 13.5911 16.9698 13.4519 16.6161 13.3961C16.2625 13.3683 16.0176 13.4519 15.9632 13.4797Z" fill="white"/>
<path d="M29.3213 13.0896C29.3485 13.2568 28.9948 13.7303 28.5595 13.8139C28.1242 13.8696 27.7433 13.5075 27.7161 13.3403C27.6889 13.1732 28.0426 12.9782 28.4779 12.8946C28.9132 12.8111 29.3213 12.9225 29.3213 13.0896Z" fill="white"/>
<path d="M28.4779 13.8978C28.0426 13.8978 27.6617 13.5357 27.6345 13.3407C27.6073 13.0621 28.0154 12.8671 28.4779 12.8114C28.9132 12.7557 29.3757 12.8393 29.4301 13.09C29.4573 13.2014 29.3485 13.3964 29.2125 13.5636C29.1036 13.675 28.886 13.87 28.6139 13.8978C28.5595 13.8978 28.5051 13.8978 28.4779 13.8978ZM28.7772 12.9507C28.6956 12.9507 28.6139 12.9507 28.5051 12.9786C28.0426 13.0343 27.7978 13.2293 27.825 13.3128C27.8522 13.4243 28.1786 13.7864 28.5595 13.7307C28.8044 13.7028 28.9676 13.5357 29.0764 13.4521C29.2125 13.3128 29.2669 13.1736 29.2669 13.1178C29.2397 13.0343 29.0764 12.9507 28.7772 12.9507Z" fill="white"/>
<path d="M29.9742 23.3132C29.8654 23.3132 29.7838 23.2854 29.675 23.2297C29.4301 23.0625 29.3757 22.7282 29.5389 22.4775C30.5727 20.8897 30.3823 19.274 30.1919 17.714C30.1103 17.0454 30.0286 16.349 30.0558 15.6804C30.083 14.984 30.1647 14.4268 30.2463 13.8697C30.3279 13.229 30.4367 12.6161 30.4095 11.8918C30.3823 11.5854 30.6272 11.3347 30.8992 11.3068C31.1985 11.279 31.4433 11.5297 31.4705 11.8082C31.525 12.644 31.4161 13.3404 31.3073 14.009C31.2257 14.5104 31.1441 15.0397 31.1169 15.6804C31.0897 16.2654 31.1713 16.8782 31.2529 17.5468C31.4433 19.2182 31.661 21.1404 30.4095 23.0347C30.3279 23.2297 30.1375 23.3132 29.9742 23.3132Z" fill="white"/>
</g>
<defs>
<clipPath id="clip0_2_1337">
<rect width="37" height="39" fill="white" transform="translate(1 1)"/>
</clipPath>
</defs>
</svg>
