<svg width="65" height="64" viewBox="0 0 65 64" fill="none" xmlns="http://www.w3.org/2000/svg">
<path fill-rule="evenodd" clip-rule="evenodd" d="M56.9234 12.375L44.5121 32.125L56.9234 51.875L62.0075 49.5V14.75L56.9234 12.375Z" fill="#E25444"/>
<path fill-rule="evenodd" clip-rule="evenodd" d="M56.9234 12.375L32.1009 14.75L19.4654 32.125L32.1009 49.5L56.9234 51.875V12.375Z" fill="#7B1D13"/>
<path fill-rule="evenodd" clip-rule="evenodd" d="M6.82991 12.375L2.79253 13.875V50.375L6.82991 51.875L32.1009 32.125L6.82991 12.375Z" fill="#58150D"/>
<path fill-rule="evenodd" clip-rule="evenodd" d="M6.77565 12.3335L32.1344 18.2224V46.5556L6.77565 51.889V12.3335Z" fill="#E25444"/>
<path fill-rule="evenodd" clip-rule="evenodd" d="M32.1478 21.3333L21.3802 19.8888L32.1478 9.6665L42.8887 19.8888L32.1478 21.3333Z" fill="#58150D"/>
<path fill-rule="evenodd" clip-rule="evenodd" d="M42.8887 19.8888L32.1344 21.3554L21.3802 19.8888V9.6665" fill="#58150D"/>
<path fill-rule="evenodd" clip-rule="evenodd" d="M32.1477 42.7778L21.3802 44.4445L32.1477 53.2223L42.8887 44.4445L32.1477 42.7778Z" fill="#58150D"/>
<path fill-rule="evenodd" clip-rule="evenodd" d="M32.1009 2L21.3346 6.75V19.875L32.1344 17.3334L32.1009 2Z" fill="#7B1D13"/>
<path fill-rule="evenodd" clip-rule="evenodd" d="M32.1344 24.5553L21.3802 25.5332V38.6379L32.1344 39.6664V24.5553Z" fill="#7B1D13"/>
<path fill-rule="evenodd" clip-rule="evenodd" d="M32.1344 46.6666L21.3802 44.4125V57.2954L32.1344 62V46.6666Z" fill="#7B1D13"/>
<path fill-rule="evenodd" clip-rule="evenodd" d="M42.8887 44.4125L32.1344 46.6672V62L42.8887 57.2954V44.4125Z" fill="#E25444"/>
<path fill-rule="evenodd" clip-rule="evenodd" d="M32.1344 24.5553L42.8887 25.5332V38.6379L32.1344 39.6664V24.5553Z" fill="#E25444"/>
<path fill-rule="evenodd" clip-rule="evenodd" d="M32.1009 2L42.8673 6.75V19.875L32.1009 17.375V2Z" fill="#E25444"/>
</svg>
